<?xml version="1.0" encoding="utf-8"?>
<!-- Generator: Adobe Illustrator 23.0.6, SVG Export Plug-In . SVG Version: 6.00 Build 0)  -->
<svg version="1.1" id="Layer_1" xmlns="http://www.w3.org/2000/svg" xmlns:xlink="http://www.w3.org/1999/xlink" x="0px" y="0px"
	 viewBox="0 0 252.5 83.7" style="enable-background:new 0 0 252.5 83.7;" xml:space="preserve">
<style type="text/css">
	.st0{fill:#FFFFFF;}
</style>
<g>
	<g>
		<path class="st0" d="M238.9,82.5H89.7V80h149.2c6.1,0,11-4.9,11-11V13.5c0-6.1-4.9-11-11-11H13.5c-6.1,0-11,4.9-11,11V69
			c0,6.1,4.9,11,11,11h54.3v2.5H13.5C6,82.5,0,76.4,0,69V13.5C0,6,6.1,0,13.5,0H239c7.5,0,13.5,6.1,13.5,13.5V69
			C252.5,76.4,246.4,82.5,238.9,82.5z"/>
	</g>
	<g>
		<path class="st0" d="M55.5,58.3c-0.6-0.1-1.1-0.4-1.5-0.3c-0.9,0.1-1.6-0.2-2.2-0.9c-0.7-0.8-1.5-1.5-2.2-2.3
			c-0.6-0.6-1.3-0.3-1.9-0.2c-0.7,0.1-1.4,0.3-2.1,0.3c-1,0-2,0.3-2.9,0.7c-1.1,0.5-2.3,0.6-3.5,0.8c-0.2,0-0.5,0.1-0.6,0.3
			c-0.7,1.1-1.9,1.6-3,2c-1.6,0.6-3.3,1-5,1c-1.7-0.1-3.4-0.2-5-0.7c-1.3-0.4-2.2-1.8-1.9-3.1c0.2-0.9,0.2-0.9-0.8-1.1
			c-1-0.1-1.4-0.7-1.1-1.7c0.2-0.7,0.4-1.5,0.7-2.2c0.1-0.3,0.3-0.6,0.4-1c0.1-0.6,0.3-1.2,0.2-1.8c-0.3-1.1,0-1.8,0.8-2.5
			c0.9-0.9,1.6-2,1.9-3.2c0.3-1.1,0.8-2.2,1.3-3.2c0-0.1,0.1-0.2,0.1-0.3c0-1.2,0.7-2.2,1.2-3.3c0.6-1.4,1.2-2.8,1.7-4.3
			c0.2-0.6,0.6-1,1.2-0.8s0.9,0.8,0.7,1.4c-0.3,1.1-0.6,2.1-0.8,3.2c-0.2,0.7-0.3,1.4-0.5,2.1c-0.2,0.6-0.5,1.2-0.8,1.7
			c-0.5,1.2-1,2.4-1.4,3.7c1.3,0.6,2.5,0.1,3.6-0.2c0.7-0.2,1.3-0.9,1.8-1.6c0.9-1.1,1.6-2.4,2.5-3.5c0.8-1,1.1-2.2,1.1-3.4
			c-0.1-1.7-0.7-3-2.3-3.9c-0.6-0.3-1-0.8-1.6-1.2c-0.2-0.2-0.6-0.2-0.8-0.4c-0.4-0.2-0.7-0.5-1.2-0.7c-0.7-0.3-1.3-0.6-2-0.7
			c-0.3,0-0.7,0.2-1,0.5c-0.4,0.4-0.7,0.9-1.1,1.5c-0.6-0.6-0.7-1.4-0.8-2.1c0-0.9,0-1.8,0.9-2.3c0.3-0.1,0.6-0.3,0.9-0.3
			c2,0.1,3.8,0.6,5.5,1.4c1.8,0.8,3.2,2.2,4.6,3.5c1.1,1,1.6,2.2,1.8,3.7c0,0.4,0.2,0.7,0.2,1c0.1,1.8-0.7,3.3-1.7,4.8
			c-0.2,0.4-0.4,0.7-0.6,1.1c-0.1,0.2-0.1,0.4-0.2,0.5c-0.5,0.9-0.3,1.4,0.7,1.6c1.5,0.4,2.9,0.7,4.3,1.1c0.7,0.2,1.3,0.8,1.7,1.3
			c0.6,0.8,1.8,1,1.9,2.1c0,0,0,0,0,0.1c0.9,0.6,1.1,1.6,1,2.6c-0.1,0.9-0.6,1.8-0.9,2.8c0,0,0.2,0.1,0.3,0.1
			c0.5-0.1,0.9-0.2,1.4-0.4c0.2-0.1,0.5-0.4,0.6-0.6c0.2-0.5,0.4-1,0.4-1.5c0.1-1.4,0.8-2.5,1.7-3.4c1-1.1,1.9-2.4,3.1-3.3
			c1-0.8,2.3-0.9,3.7-0.5c0.9,0.3,1.6,0.8,2.1,1.4c0.4,0.5,0.5,1.3,0.7,1.9c0.3,0.8,0.5,1.6-0.3,2.3c-0.1,1.9-1.8,2.4-3,3.5
			c-0.8,0.7-2,1.1-3,1.6c-0.1,0.1-0.3,0-0.4,0c-0.7,0-1.1,0.4-0.9,1.2c0.3,1.3,2.3,2,3.2,1.1s2.1-1.1,3.1-1.7c1.1-0.6,2-1.5,3.1-2.2
			c1.5-1,2.9-2.2,4.1-3.5c0.3-0.4,0.7-0.7,1-1c0.6-0.6,1.1-1.4,1.8-1.9c0.4-0.2,1.3,0,1.6,0.3c0.3,0.2,0.2,1.1,0,1.5
			c-0.4,0.8-1.1,1.5-1.6,2.3c-0.4,0.6-0.5,1.3-0.8,2c0,0.1,0.1,0.4,0.2,0.4s0.4,0,0.5-0.1c0.8-0.8,1.6-1.7,2.4-2.5
			c0.3-0.3,0.8-0.4,1.2-0.7c1.4-0.9,2.9-1.8,4.3-2.7c0.1-0.1,0.2-0.1,0.2-0.2c1.1-0.9,2.4-0.5,2.7,0.9c0.1,0.4,0.1,0.8,0.1,1.1
			c-0.1,1.8,0.2,3.5,0.9,5.1c0.5,1.1,0.7,1.2,1.9,0.7c0.3-0.1,0.6-0.4,0.9-0.6c1.4-1.1,2.7-2.2,4-3.4c1.1-1,2-2.1,3-3.1
			c0.7-0.7,1.4-1.4,1.9-2.2c0.4-0.7,0.7-1.5,1-2.2c0.3-0.9,1.1-1.2,1.9-1.5c0.4-0.1,1.3,0.7,1.2,1.1c-0.2,1-0.2,1.9-1,2.8
			c-0.6,0.7-0.7,1.8-1.1,2.7c-0.3,0.9-0.6,1.8-0.9,2.7c-0.1,0.5-0.2,1-0.2,1.5c0,0.2,0.4,0.5,0.5,0.5c0.6-0.2,1.3-0.4,1.8-0.7
			c0.7-0.5,1.4-1,1.9-1.7c0.6-0.9,1.6-1.4,1.9-2.6c0.1-0.4,0.7-0.7,1.1-1c0.7-0.7,1.4-1.5,2.1-2.2c0.9-1.1,1.9-1.6,3.3-1.7
			c1.7-0.1,2.3,0.3,3,1.9c0.1,0.1,0.1,0.3,0.2,0.4c0.2,0.3,0.5,0.5,0.7,0.8c0.2-0.3,0.4-0.6,0.7-1.1c0.4,0.1,1.1,0.2,1.6,0.5
			c0.7,0.6,0.7,1.2,0.1,1.9c-1.3,1.5-2.1,3.3-2.7,5.2c-0.2,0.7-0.1,1.6-0.1,2.4c0,0.2,0.2,0.4,0.3,0.5c0.2,0,0.5,0,0.7-0.2
			c1-1,2-2.1,3-3.2c0.8-0.8,1.6-1.5,2.4-2.2c0.6-0.5,1.2-1.1,1.8-1.7c1-0.9,2.1-1.8,3.1-2.8c0.3-0.3,0.6-0.7,0.8-1.1
			c0.6-1,1.7-0.7,2.4-0.3c0.7,0.4,0.4,1.1,0.2,1.5c-0.3,0.8-0.8,1.5-1.1,2.2c-0.4,0.7-0.7,1.4-1,2.2c1.1,0.2,1.4-0.6,2-0.9
			c0.4-0.3,0.8-0.6,1.2-0.9c0.5-0.4,0.9-0.9,1.4-1.4c0.1-0.1,0.1-0.2,0.2-0.2c1-0.8,2-1.6,3.1-2.4c0.7-0.6,1.5-1.1,2.3-1.6
			c0.4-0.2,1.1-0.3,1.3,0c0.4,0.3,1,0.7,0.8,1.5c-0.5,1.6-1.1,3.2-1.5,4.8c-0.2,0.8-0.3,1.7-0.3,2.6c-0.4,0.5-0.9,0.9-0.7,1.7
			c0.1,0.6,0.5,0.6,0.9,0.3s0.8-0.4,1.2-0.6c0.5-0.4,1.1-0.7,1.6-1.1c0.7-0.5,1.4-1.1,2-1.7c0.4-0.4,0.7-0.7,1.1-1.2
			c0.7-0.9,1.4-1.8,2-2.8c0.6-1.1,1.3-1.3,2.4-0.7c0.5,0.3,0.6,0.7,0.5,1.2c-0.1,0.4-0.3,0.8-0.5,1.2c-1,1.3-1.3,2.8-1.7,4.3
			c-0.2,0.6-0.1,1.4,0,2c0.1,0.5,0.5,0.5,0.9,0.3c0.8-0.6,1.6-1.3,2.5-1.9c0.6-0.4,1.2-0.7,1.8-1.1c0.1-0.1,0.4-0.1,0.4-0.3
			c0.8-1.3,2.1-1.9,3.2-2.8c0.5-0.4,0.8-1.1,1.1-1.8c0.4-0.9,1.2-1.4,1.9-1.9c0.5-0.3,1-0.2,1.4,0.4c0.2,0.3,0.4,0.5,0.5,0.7
			c0.2,0.4,0.5,0.8-0.3,1c-0.3,0.1-0.6,0.4-0.8,0.7c-1,1.3-2,2.6-1.9,4.4c0,1.1,0.5,1.7,1.1,2.5c0.1,0.1,0.3,0.2,0.4,0.2
			c0.8-0.4,1.8-0.4,2.3-1.3c0.1-0.1,0.1-0.3,0.2-0.4c0.9-0.7,1.8-1.3,2.7-2.1c0.3-0.2,0.5-0.6,0.8-0.9s0.7-0.6,0.9-0.9
			c0.7-0.7,1.4-1.5,2-2.2c0.3-0.4,0.6-0.8,0.9-1.2c0.2-0.3,0.5-0.7,0.7-1.1c0.3-0.7,0.9-0.8,1.3-0.2c0.1,0.1,0.2,0.3,0.3,0.4
			c0.8,0.6,0.8,0.6,0.2,1.4c-0.5,0.7-1,1.4-1.4,2.2c-0.1,0.2-0.1,0.5,0,0.7c0.5-0.4,1.3-0.5,1.3-1.4c0-0.1,0.1-0.1,0.2-0.2
			c0.6-0.6,1.3-1.1,1.9-1.7c0.7-0.6,1.4-1.4,2.2-1.9c0.5-0.3,1.1-0.5,1.4-1.1c0.1-0.2,0.5-0.4,0.8-0.5c0.4-0.2,0.9-0.3,1.2-0.9
			c0.2-0.6,1.5-0.4,1.9,0.3s0.6,1.5,0.8,2.3c0.4,1.2,0.7,2.4,1,3.6c0.2,0.7,0.4,1.3,0.6,2c0.2,1,0.5,2,0.7,3c0,0.2,0.1,0.3,0.2,0.4
			c0.6,0.8,0.2,1.5-0.3,1.9c-0.3,0.3-1,0.3-1.4,0.1c-1-0.4-1.5-1.3-1.6-2.4c0-0.5-0.2-0.9-0.3-1.4c-0.3-1-0.5-2-0.8-3
			s-0.6-2.1-0.9-3.1c0-0.1-0.4-0.1-0.6-0.2c-0.2,1-1.3,1.1-1.8,1.7c-0.3,0.4-0.8,0.6-1.3,1c-0.2,0.1-0.4,0.2-0.4,0.4
			c-0.3,1.2-1.3,1.7-2.1,2.5c-0.5,0.5-0.8,1.1-1.3,1.6c-1.1,1.1-2.2,2.2-3.4,3.1c-0.9,0.7-1.6,0.3-2.2-0.9c-0.2-0.3-0.3-0.6-0.5-1.1
			c-0.2,0.2-0.5,0.3-0.5,0.4c-0.5,0.9-1.2,1.4-1.9,2c-0.6,0.5-1.1,1-1.9,0.9c-0.1,0-0.2,0.1-0.3,0.2c-0.9,0.8-2.1,0.8-3.1,0.1
			c-0.4-0.3-0.8-0.5-1.2-0.8c-0.7-0.6-1.1-1.4-1.1-2.4c0-0.3-0.1-0.6-0.2-0.9c-0.1-0.2-0.2-0.4-0.4-0.6c-0.1,0.2-0.3,0.3-0.4,0.5
			c-0.7,0.6-1.3,1.3-2,1.8c-0.4,0.3-0.6,0.8-1.3,0.6c-0.1,0-0.3,0.4-0.4,0.6c-0.1,0.2-0.1,0.5-0.2,0.5c-0.8,0.3-1.6,0.6-2.4,0.8
			c-0.4,0.1-0.9,0.1-1.2,0c-0.7-0.3-1.6-0.5-1.9-1.4c-0.2-0.5-0.3-1-0.5-1.5c-0.1-0.4-0.2-0.9-0.4-1.3c-2.2,2.3-3.4,3.2-4.1,2.9
			c-0.2,0.9-1,0.8-1.8,0.8c-0.2,0-0.5,0-0.7,0c-0.5-0.1-1.1,0-1.5-0.3c-1-0.8-1.4-1.9-1-3.2c0.1-0.5,0.2-1,0.3-1.5
			c0.2-0.9,0.5-1.8,0.7-2.7c0.1-0.5,0.2-1,0.3-1.5c-0.1,0-0.1-0.1-0.2-0.2c-0.2,0.2-0.5,0.3-0.7,0.4c-1.1,1-2.3,2.1-3.4,3.1
			c-1.2,1.1-2.4,2-3.5,3.1c-0.6,0.6-1.2,1.2-2,1.6c-0.4,0.2-0.7,0.8-1.1,1c-0.6,0.3-1.3,0.4-1.8-0.1c-0.6-0.6-0.7-1.6-0.4-2.4
			c0.4-0.8,0.7-1.5,1.1-2.3c0.1-0.3,0.2-0.6,0.3-0.9c-1-0.1-1.3,0.7-1.7,1.2c-0.4,0.4-0.8,0.9-1.2,1.4s-0.7,1.1-1.2,1.5
			s-1,0.7-1.3,1.4c-0.1,0.2-0.4,0.3-0.6,0.4c-0.7,0.2-1.1,0.6-1.1,1.4c-0.5,0.2-0.9,0.4-1.4,0.4c-1.6,0.2-2.6-0.6-2.9-2.2
			c-0.1-0.4-0.2-0.8-0.3-1.2c-0.1-0.5-0.5-0.6-0.9-0.3c-0.5,0.4-1.1,0.7-1.3,1.2c-0.4,1-1.2,0.8-1.9,1c-0.8,0.2-1.5,0.5-2.3,0.7
			c-1.1,0.4-2.1,0-3-0.5c-0.6-0.3-1.1-0.8-1.4-1.4c-0.1-0.2-0.5-0.3-0.7-0.3c-1,0.3-2,0.6-2.7,1.4c-0.3,0.3-0.2,0.8-0.3,1.3
			c-0.2,1-0.3,1.9-0.5,2.9s-0.6,2-0.5,3c0,0.4-0.2,0.8-0.2,1.2c0,0.6,0,1.3-0.1,1.9c0,0.2,0,0.3,0,0.5c-0.4,1.3-0.7,2.5-1.1,3.8
			c0,0.1-0.1,0.2-0.1,0.4c0.2,1-0.2,1.9-0.5,2.9c-0.4,1.7-0.8,3.3-1.3,5c-0.2,0.7-0.6,1.3-1,1.9c-0.5,0.7-1,1.5-1.7,2.1
			c-0.6,0.5-1.5,0.9-2.2,1.2c-0.4,0.2-0.9,0.2-1.4,0.4c-1.2,0.6-2.4,0.4-3.7,0.4c-0.8,0.1-1.6-0.2-2.4-0.3c-0.2,0-0.5,0.1-0.7,0.2
			c-0.8-1-2-1.4-3.2-1.8c-0.4-0.1-0.6-0.5-0.9-0.8c-0.5-0.4-1.1-0.7-1.5-1.1c-0.6-0.6-1.1-1.4-1.6-2.1s-1.2-1.3-1.5-2.1
			c-0.5-1.2-1.3-2.3-1.3-3.7c0-1.4,0.2-2.7,1.1-3.8c0.2-0.3,0.4-0.6,0.6-0.9c0.2-0.2,0.5-0.4,0.9-0.6c0.6-0.9,1.3-1.7,2.4-2.4
			c1.6-0.9,3.1-2.1,4.6-3.2c0.4-0.3,0.7-0.5,1.1-0.7c1.4-0.8,2.7-1.7,4.1-2.5c0.3-0.2,0.6-0.2,0.8-0.4c0.2-0.2,0.4-0.5,0.5-0.8
			c0-0.1-0.3-0.3-0.5-0.4c-0.1-0.1-0.2-0.1-0.3-0.2c-0.6-0.9-1.7-1.2-2.4-2c-0.3-0.3-0.3-0.8-0.5-1.2c-0.6-0.9-0.8-1.8-0.7-2.9
			c0-0.5,0-1,0-1.5c0-0.3-0.1-0.6-0.2-0.8c-0.3,0.1-0.7,0.2-1,0.4c-0.4,0.2-0.8,0.4-1.2,0.7c-0.3,0.3-0.6,0.7-0.9,1
			c-0.4,0.5-0.8,1.1-1.3,1.4c-1,0.7-1.7,1.6-2.6,2.4c-0.9,0.9-2,1.7-3.3,2c-1.1,0.2-2.1-1-1.8-2.2c0.1-0.3,0.2-0.6,0.3-0.9
			c0-0.1,0-0.4-0.1-0.4s-0.3,0-0.5,0.1c0,0,0,0.1-0.1,0.1c-0.5,0.6-0.8,1.3-1.9,1.5c-0.6,0.1-1.1,0.8-1.7,1.3
			c-0.1,0.1-0.2,0.2-0.2,0.2c-1.7,0.2-2.7,1.5-4.2,2.1C56,57.9,55.7,58.2,55.5,58.3z M86.7,58.4c-0.9-0.5-1.6-0.1-2.1,0.5
			c-0.1,0.1-0.2,0.3-0.4,0.3c-0.9,0.1-1.6,0.5-2.2,1.1c-0.2,0.2-0.5,0.3-0.8,0.5c-0.9,0.5-1.9,0.9-2.8,1.5c-1.3,0.8-2.5,1.7-3.7,2.5
			c-0.9,0.6-1.9,1.2-2.8,1.9c-0.9,0.7-1.7,1.6-2.6,2.2c-1.2,0.9-1.9,3.5-1.3,4.7c0.7,1.5,1.2,3.2,2.7,4.2c0.4,0.2,0.7,0.5,1.1,0.7
			c0.8,0.6,1.6,1.1,2.5,1.7c0.2,0.1,0.3,0.2,0.5,0.2c1.1-0.2,1.9,1,3.1,0.6c0.5-0.1,1.1,0.2,1.6,0.2c2.2-0.2,4.1-0.9,5.2-3
			c0.5-0.9,1-1.8,1.3-2.7c0.5-1.6,0.9-3.2,1.3-4.8c0.1-0.4,0.3-0.7,0.4-1.1c0.4-1.8,0.7-3.7,1-5.5c0.1-0.4,0.2-0.7,0.2-1.1
			c0.2-1.6,0.4-3.1,0.6-4.7c0.1-0.6,0.2-1.2,0.3-2c-0.8,0.3-1.3,0.6-1.8,0.8C87.3,57.4,86.7,57.5,86.7,58.4z M38.5,53.7
			c0.4,0.2,1.1,0.1,1.7-0.3c0.6-0.4,1.3-0.8,1.9-1.3c0.4-0.3,0.9-0.7,1.3-1.1c0.3-0.4,0.6-0.9,0.8-1.4c0.3-0.6,0.1-1.3-0.4-1.6
			c-0.4-0.3-0.7-0.7-1.1-1c-0.4-0.4-0.8-0.7-1.3-1s-1.2-0.2-1.6-0.6c-0.6-0.5-1.3-0.6-2-0.6c-0.5,0-1.1,0.1-1.5-0.1
			c-1.4-0.5-3.5,0-4.5,1.1c-0.1,0.1-0.2,0.2-0.4,0.3c-1.3,0.5-2.6,1-3.9,1.5c-0.3,0.1-0.5,0.4-0.7,0.7c-0.2,0.5-0.3,1-0.5,1.5
			c-0.1,0.4-0.2,1-0.4,1.3c-0.5,0.5-0.5,1.2-0.6,1.8c0,0.6,0.1,0.9,0.8,0.8c1.2-0.1,2.4-0.2,3.5,0c2.1,0.4,4.2,0.5,6.3,0.4
			C36.7,54.1,37.5,53.9,38.5,53.7z M102.2,48c0.9,0,1.4,0.4,1.2,1c-0.2,0.5-0.5,1.2-1,1.5c-0.8,0.5-1.8,0.7-2.6,1.2
			c-0.4,0.2-0.5,0.7-0.7,1.1c0,0.2,0.3,0.6,0.5,0.6c0.7,0.2,1.5,0.5,2.2-0.1c0.3-0.3,0.7-0.9,1-0.9c1.4-0.1,2-1.4,3.1-2
			c0.7-0.4,1.2-1.2,1.7-1.8c0.1-0.1,0.2-0.3,0.2-0.4c0-0.9,0-1.9,0-2.8c0-0.5-0.1-1.1-0.8-1.3c-0.7-0.2-1.3-0.1-1.8,0.5
			c-0.6,0.7-1.3,1.2-1.9,1.8C102.8,46.9,102.1,47.2,102.2,48z M57.7,46.2c0.1,0,0.2-0.1,0.2-0.1c-0.2-0.2-0.3-0.4-0.5-0.6
			c-1.2-0.8-2.5-0.5-3.4,0.6s-1.6,2.4-2,3.7c-0.1,0.3-0.1,0.6-0.1,0.9c0.3,0,0.7,0,1,0s0.6-0.1,1-0.2c1.4-0.4,2.5-1.3,3.5-2.2
			c0.2-0.2,0.4-0.5,0.4-0.8C57.9,47.2,57.8,46.7,57.7,46.2z M84.6,55.7c0.5-0.1,1-0.1,1.4-0.2s1.1-0.2,1.1-0.4c0.3-1,0.9-1,1.7-1.1
			c0.5,0,0.9-0.2,1.1-0.7c0.3-0.8,0.7-1.6,1-2.5c0.2-0.5,0.3-1,0.4-1.6c-0.1-0.1-0.2-0.1-0.3-0.2c-0.2,0.4-0.5,0.7-0.7,1.1
			c-0.2,0.3-0.4,0.5-0.6,0.7c-0.4,0.3-1,0.6-1.4,0.9c-1.3,1.1-2.5,2.2-3.8,3.4C84.4,55.3,84.5,55.6,84.6,55.7z M33.6,56.4
			c-2.2,0-4.1-0.2-6.2,0C28.6,57.3,32.4,57.3,33.6,56.4z"/>
		<path class="st0" d="M210.8,51.5c-0.6,0.4-1.2,0.8-1.7,1.2c-0.6,0.5-1.2,1.2-1.7,1.8c-0.1,0.1-0.2,0.2-0.2,0.2
			c-1.1-0.2-1.5,0.9-2.3,1.2c-1.2,0.3-2.3,0.6-3.5,0.9c-0.2,0-0.5-0.2-0.7-0.3c-1-0.8-1.9-0.8-2.9-0.1c-0.3,0.2-0.7,0.3-1.1,0.4
			c-0.3,0.1-0.5,0.1-0.8,0.2c-2,0.6-4,0.8-6,0.7c-1-0.1-1.9-0.2-2.9-0.5c-0.6-0.2-1-0.7-1.5-1.1c-0.6-0.5-1.3-0.9-1.9-1.4
			c-1.1-0.9-1.7-2.1-2.2-3.4s-0.9-2.6-0.9-4c0-0.5-0.2-1.1-0.1-1.7c0-0.7,0.2-1.4,0.4-2.1c0.5-1.6,1-3.2,1.5-4.9
			c0.1-0.4,0.4-0.8,0.5-1.2c0.7-1.5,1.4-3.1,2.3-4.5c0.9-1.5,2-2.8,3.1-4.2c0.7-1,1.3-2.1,2.2-3c0.9-1,2-1.8,3-2.7
			c1.9-1.8,4.4-1.9,6.4-0.2c0.3,0.2,0.6,0.4,0.9,0.5c1,0.4,1.7,1.1,2.3,2c0.1,0.1,0.2,0.2,0.3,0.2c0.8,0.6,1.2,1.9,0.6,2.7
			c-0.5,0.8-1.2,1.5-1.9,2.1c-0.3,0.2-0.8,0.2-1.2,0.3c-0.1-0.1-0.2-0.2-0.2-0.2c0.3-0.7,0.6-1.5,1-2.2s0.3-1-0.4-1.5
			s-1.4-1.1-2.1-1.6c-1.1-0.9-2.4-1.3-3.8-1c-0.2,0-0.4,0.2-0.6,0.3c-1.7,1.5-3.1,3.1-4.4,5c-1.1,1.5-2.2,3-3.2,4.6
			c-0.3,0.4-0.4,0.9-0.7,1.3c-1.1,2.2-2.2,4.4-2.9,6.9c-0.5,1.6-0.5,3.1-0.3,4.8c0.1,1,0.1,1.9,0.4,2.9c0.5,1.6,1.5,2.8,2.8,3.9
			c0.2,0.1,0.4,0.2,0.5,0.4c0.5,0.7,1.2,0.9,2.1,0.8c0.1,0,0.3,0,0.4,0c1.6,0.7,3.1,0.5,4.7,0c0.7-0.2,1.6-0.2,2.4-0.1
			c1,0.1,1.9,0.1,2.5-0.8l0.1-0.1c1-0.1,1-1,1.1-1.6c0.2-0.7,0.1-1.4,0.3-2.1s0.7-1.2,1.1-1.8c0.3-0.5,0.8-0.9,0.9-1.5
			c0.2-0.7,0.5-1.1,1-1.6c0.4-0.4,0.6-0.9,0.9-1.3c0.1-0.2,0.2-0.4,0.4-0.5c0.9-0.6,1.7-1.2,2.6-1.8c0.9-0.6,2.8-0.3,3.3,0.7
			c0.4,0.7,0.6,1.5,0.8,2.2c0.2,0.9,0.6,1.3,1.6,1.3c0.9,0,0.8,0.7,0.9,1.2c0.2,1,0.2,2,0,3c-0.3,1.2-0.1,2.3,0.9,3.3
			c0.4,0.4,0.9,0.6,1.4,0.3c1.5-0.9,3.1-1.9,3.9-3.7c0.2-0.4,0.4-0.8,0.9-1c0.4-0.2,0.6-0.9,0.9-1.3c0.1-0.2,0.4-0.5,0.6-0.4
			c0.9,0.2,1.1-0.4,1.4-1c0.1-0.2,0.1-0.5,0.3-0.7c0.4-0.4,0.9-0.9,1.4-0.9s0.9,0.5,1.4,0.9c0.1,0.1,0.1,0.5,0,0.7
			c-0.5,0.6-0.6,1.3-0.7,2c-0.1,1.1,0,2.1,0.2,3.2c0.1,0.5,0.5,1.1,0.7,1.6c0.1,0.3,0.3,0.6,0.2,0.8c-0.2,0.8-0.2,1.7-0.9,2.4
			c-0.1,0.1-0.2,0.2-0.3,0.2c-0.5,0.2-2-0.5-2.2-1.1c-0.3-1.1-0.6-2.3-0.9-3.4c-0.1-0.2-0.3-0.6-0.4-0.6c-0.3,0-0.7,0.1-0.9,0.3
			c-0.7,0.9-1.4,1.8-2.1,2.7c-0.1,0.1-0.2,0.2-0.2,0.2c-0.9,0-1.6,0.7-2.1,1.3c-0.6,0.7-1.3,0.6-2.1,0.5c-0.6,0-1.3-0.2-1.9-0.3
			c-0.1,0-0.2,0-0.2-0.1c-0.5-0.7-1.1-1.3-1.6-2.1C211.3,53.2,211.1,52.4,210.8,51.5z M207.9,44.1c-0.1,0.1-0.4,0.2-0.6,0.4
			c-0.3,0.3-0.4,0.6-0.7,0.9c-2.1,1.6-3.1,4-4,6.4c-0.1,0.2,0,0.4,0.1,0.7c0.3-0.1,0.7,0,0.8-0.2c0.4-0.7,1.2-0.7,1.8-1
			c1-0.5,2-1.2,2.8-2c0.3-0.4,0.6-0.7,1-0.7s0.7-0.2,0.7-0.6s0-0.8-0.2-1.2c-0.2-0.6-0.5-1.2-0.6-1.8
			C208.8,44.2,208.5,44.2,207.9,44.1z"/>
		<path class="st0" d="M165.6,33.1c0,0.7-0.8,1.6-1.3,1.6c-0.9-0.1-1.7-0.2-2.4-1c-0.5-0.6-1.3-0.9-2-1.3c-0.2-0.1-0.4-0.2-0.6-0.3
			c-0.9-0.6-1.7-1.3-2.6-1.9c-0.7-0.5-0.9-2.1-0.2-2.8c0.1-0.1,0.2-0.1,0.3-0.1c1.3,0.2,2.6,0.2,3.5,1.5c0.5,0.7,1.4,1.1,2.1,1.7
			c0.9,0.7,1.9,1.5,2.9,2.2C165.4,32.8,165.5,33,165.6,33.1z"/>
		<path class="st0" d="M225.1,34.1c0.3,0.1,0.5,0.2,0.7,0.3c0.5,0.5,1,1.1,1.5,1.5c0.4,0.3,0.9,0.4,1.3,0.6c0.1,0,0.2,0,0.3,0.1
			c0.6,0.8,1.2,1.6,1.8,2.4c0.3,0.4-0.5,2.3-1,2.4c-0.2,0-0.4-0.1-0.6-0.3c-0.8-0.9-1.5-2-3-1.8c-0.1,0-0.3-0.1-0.4-0.2
			c-0.7-0.9-1.5-1.5-2.6-1.9c-0.4-0.2-0.8-0.9-0.9-1.5c-0.1-0.5,0.2-1,0.9-1.1C223.7,34.6,224.4,34.3,225.1,34.1z"/>
		<path class="st0" d="M104.7,32.2c-0.3,0.5-0.5,0.9-0.7,1.3c-0.3,0.5-0.7,0.2-1,0c-0.8-0.4-1.6-0.9-2.5-1.2
			c-0.4-0.2-0.7-0.2-1.1-0.4c-0.2-0.1-0.4-0.3-0.7-0.4c-0.4-0.2-0.9-0.4-1.3-0.6c0,0-0.1,0-0.2,0c-0.6-0.6-1.3-1.2-1.9-1.9
			c-0.1-0.1,0.4-0.7,0.8-1c0.2-0.2,0.6-0.3,0.9-0.5c0.5-0.2,0.9-0.4,1.2,0.3c0,0.1,0.2,0.2,0.3,0.2c1.3,0,1.7,1.3,2.8,1.8
			c0.7,0.3,1.3,0.7,1.9,1.1C103.7,31.3,104.2,31.7,104.7,32.2z"/>
	</g>
</g>
</svg>
